<svg version="1.1" id="Layer_1" xmlns="http://www.w3.org/2000/svg" xmlns:xlink="http://www.w3.org/1999/xlink" x="0px" y="0px"
	 width="100%" viewBox="0 0 2000 2000" enable-background="new 0 0 2000 2000" xml:space="preserve">
<path fill="#FFE471" opacity="1.000000" stroke="none" 
	d="
M420.135651,1446.100586 
	C418.093628,1436.450439 416.065308,1426.797485 414.006287,1417.151001 
	C411.021301,1403.166016 408.074738,1389.172607 405.000732,1375.207153 
	C401.400848,1358.852417 397.657562,1342.529175 394.026550,1326.181152 
	C392.606384,1319.787231 391.322327,1313.363159 390.417328,1306.474365 
	C470.349243,1305.997314 549.840088,1306.007080 629.330994,1305.963135 
	C631.963135,1305.961670 634.694702,1305.772583 637.211304,1305.068359 
	C657.778809,1299.313354 668.768921,1279.835083 663.456482,1258.792603 
	C659.016296,1241.204956 643.325500,1229.007446 625.100830,1229.002319 
	C595.604187,1228.993896 566.107605,1228.989746 536.610962,1229.002075 
	C482.118073,1229.024902 427.625153,1229.061157 373.132263,1229.091797 
	C372.415131,1227.729614 371.346985,1226.442749 371.035889,1224.993408 
	C368.311615,1212.301880 365.788055,1199.567383 363.076721,1186.872803 
	C359.757660,1171.332642 356.361511,1155.808350 352.912262,1140.296509 
	C349.632568,1125.546997 346.261536,1110.817871 342.894226,1096.088013 
	C338.962158,1078.887695 334.946167,1061.706299 331.049652,1044.498047 
	C327.650085,1029.484375 324.358551,1014.446350 321.032532,999.416138 
	C317.378448,982.903320 313.747101,966.385376 310.091705,949.872864 
	C306.764648,934.843384 303.449677,919.811157 300.072723,904.792786 
	C296.262756,887.848572 292.331390,870.931519 288.556641,853.979492 
	C281.962708,824.367126 275.804810,794.651306 268.709167,765.160522 
	C266.187225,754.678955 266.325775,744.197388 267.397675,734.011902 
	C268.587463,722.706604 276.414246,714.957764 287.096466,710.405396 
	C303.607971,703.368835 317.549072,708.784607 330.576477,718.994751 
	C337.067810,724.082275 343.455383,729.302429 349.955078,734.379150 
	C363.303619,744.805359 376.694214,755.177795 390.070862,765.568054 
	C404.455200,776.741028 418.896179,787.841736 433.216553,799.096069 
	C451.614594,813.554932 469.917206,828.135193 488.641602,843.127563 
	C489.486450,844.261475 489.821350,845.095215 490.433350,845.576965 
	C510.939606,861.723755 531.498657,877.803589 551.992859,893.965637 
	C569.223938,907.554321 586.233093,921.429443 603.635010,934.794312 
	C613.219055,942.154968 623.398926,948.741394 633.334045,955.642517 
	C636.812988,958.059143 640.037354,956.782959 642.869934,954.469543 
	C644.782288,952.907715 646.642944,951.090271 647.963013,949.026611 
	C656.912048,935.036865 666.135437,921.197876 674.476257,906.848694 
	C696.795593,868.451477 718.774902,829.855774 740.722961,791.244385 
	C743.615356,786.156006 745.537781,780.516296 747.909424,775.131958 
	C748.913757,774.168945 750.209595,773.374329 750.877991,772.217285 
	C758.848267,758.418457 766.794922,744.604980 774.600952,730.712830 
	C779.451904,722.079895 783.909241,713.225037 788.798950,704.614990 
	C796.448608,691.145081 804.389343,677.840759 812.065308,664.385620 
	C818.087158,653.829895 823.844299,643.123413 829.820374,632.541138 
	C832.545410,627.715698 835.592163,623.072754 838.356384,618.268311 
	C842.850830,610.456482 847.169556,602.543335 851.676697,594.738953 
	C859.239136,581.644104 866.956543,568.638367 874.474060,555.517944 
	C877.510254,550.218872 880.101440,544.666565 883.059265,539.320251 
	C886.468262,533.158508 890.070618,527.104004 893.568054,520.990906 
	C904.092651,502.595001 914.559509,484.165833 925.139526,465.801880 
	C934.590027,449.398590 944.108459,433.033844 953.697632,416.711243 
	C960.048035,405.901642 966.459778,395.124298 973.064331,384.469086 
	C977.672363,377.035004 984.323914,371.932281 992.476501,368.723541 
	C995.219482,367.643921 997.382812,363.821106 1000.953918,368.060913 
	C1000.987000,511.227631 1000.973083,653.537598 1000.567139,795.927368 
	C997.326355,796.755554 994.308472,797.128723 991.660583,798.322449 
	C983.546692,801.980408 977.195801,807.940186 972.500427,815.346313 
	C961.587708,832.559143 950.983398,849.968445 940.330322,867.344727 
	C923.576782,894.671875 906.907654,922.050659 890.158203,949.380188 
	C882.860596,961.287292 875.387634,973.087097 868.108398,985.005249 
	C851.757874,1011.775879 835.362183,1038.520142 819.223450,1065.418335 
	C812.090332,1077.307251 810.184937,1089.978027 817.175964,1102.601074 
	C824.010498,1114.941528 831.340210,1127.019043 838.769775,1139.015503 
	C847.510742,1153.129517 856.686157,1166.973633 865.506592,1181.039185 
	C880.313904,1204.652100 894.916260,1228.393799 909.742493,1251.994629 
	C922.703430,1272.626709 935.725281,1293.222778 948.965759,1313.675781 
	C957.778137,1327.288330 966.465149,1341.046021 976.281494,1353.920410 
	C982.198914,1361.681274 990.228882,1367.775757 1000.970642,1368.650635 
	C1000.986450,1394.401733 1000.985840,1419.696411 1000.988403,1444.975830 
	C1000.991516,1444.960571 1000.961182,1444.951904 1000.496216,1444.969727 
	C815.917542,1444.991821 631.803894,1444.972046 447.690308,1445.078125 
	C439.452240,1445.082886 431.216797,1446.258789 422.974304,1446.801758 
	C422.047485,1446.862793 421.082764,1446.348267 420.135651,1446.100586 
z"/>
<path fill="#FFBC0C" opacity="1.000000" stroke="none" 
	d="
M1000.959229,795.847534 
	C1000.973083,653.537598 1000.987000,511.227631 1001.002258,368.447449 
	C1009.692078,366.794708 1015.919617,371.442688 1022.135925,376.549957 
	C1030.711670,383.595642 1034.907837,393.566833 1040.292603,402.744507 
	C1050.133545,419.516907 1059.928955,436.317291 1069.585815,453.196198 
	C1077.215698,466.532288 1084.577881,480.021240 1092.116577,493.409943 
	C1099.623901,506.743042 1107.179199,520.049316 1114.756348,533.342957 
	C1125.152588,551.582581 1135.534180,569.830872 1146.034058,588.010864 
	C1150.659302,596.019287 1155.698120,603.789368 1160.300415,611.810303 
	C1165.986084,621.719177 1171.328735,631.824341 1176.974609,641.756592 
	C1182.838989,652.073425 1188.895020,662.281128 1194.855347,672.543518 
	C1200.828003,682.827087 1206.882568,693.064819 1212.722412,703.423401 
	C1218.434204,713.554504 1223.869385,723.841064 1229.518066,734.008118 
	C1236.992554,747.461182 1244.552124,760.867004 1252.108276,774.274536 
	C1252.307617,774.628418 1252.888428,774.767517 1253.645386,775.468750 
	C1254.513062,777.653381 1254.759644,779.518616 1255.589355,781.072510 
	C1258.247192,786.050354 1261.125488,790.910217 1263.910156,795.820435 
	C1275.458740,816.184021 1286.955200,836.577209 1298.563965,856.906433 
	C1311.075439,878.817017 1323.437134,900.819946 1336.372559,922.478943 
	C1342.471069,932.690369 1349.324219,942.531311 1356.654907,951.898804 
	C1361.682495,958.323120 1363.645752,958.211914 1370.905029,954.821655 
	C1374.186768,953.289124 1377.391602,951.404480 1380.250854,949.188599 
	C1390.068970,941.579163 1399.675171,933.697083 1409.440918,926.018982 
	C1440.309448,901.749084 1471.244385,877.563599 1502.065674,853.234131 
	C1506.001709,850.127197 1509.416992,846.360535 1513.073364,842.899536 
	C1529.737793,830.070618 1546.413208,817.256165 1563.062012,804.406982 
	C1572.002563,797.506897 1580.959595,790.625671 1589.798462,783.596741 
	C1605.098022,771.429871 1620.254517,759.082642 1635.580078,746.948853 
	C1647.125244,737.808167 1659.212769,729.315369 1670.364624,719.726807 
	C1679.605103,711.781616 1690.136475,706.844360 1701.807617,707.310303 
	C1718.584351,707.980164 1735.208862,720.330200 1735.282349,740.233704 
	C1735.339233,755.596558 1732.295288,770.184937 1729.020264,784.913269 
	C1724.286255,806.203247 1719.675171,827.520569 1715.006836,848.825134 
	C1711.339233,865.561401 1707.699585,882.303772 1703.980957,899.028687 
	C1701.377686,910.736145 1698.623901,922.410095 1696.005371,934.114258 
	C1691.645752,953.600708 1687.298462,973.090149 1683.026367,992.595825 
	C1679.615601,1008.167908 1676.413330,1023.785950 1672.954590,1039.347046 
	C1669.680664,1054.075928 1666.183594,1068.755005 1662.802368,1083.460083 
	C1658.859253,1100.609375 1654.861694,1117.746460 1651.024414,1134.919434 
	C1647.583740,1150.317627 1644.347778,1165.761597 1640.985107,1181.177368 
	C1637.665649,1196.395752 1634.315552,1211.607544 1630.899780,1226.804321 
	C1630.763916,1227.408691 1629.811279,1227.829224 1628.579346,1228.670898 
	C1544.931030,1229.004272 1461.942505,1229.110107 1378.954590,1228.917114 
	C1360.311768,1228.873657 1347.687500,1237.251953 1340.076904,1253.849121 
	C1329.347534,1277.248047 1346.953735,1306.234009 1373.146118,1306.126221 
	C1452.799805,1305.798462 1532.455811,1306.041016 1612.110840,1306.061523 
	C1610.408081,1313.996460 1608.669922,1321.923950 1607.010864,1329.867920 
	C1604.318115,1342.762085 1601.865845,1355.709595 1598.973877,1368.558472 
	C1593.479370,1392.969116 1587.737305,1417.323975 1582.138550,1441.711304 
	C1581.882690,1442.825317 1582.018799,1444.029053 1581.581787,1445.767822 
	C1577.220215,1445.896484 1573.249512,1445.057373 1569.278442,1445.056030 
	C1379.847412,1444.988770 1190.416260,1444.994141 1000.985229,1444.991211 
	C1000.985840,1419.696411 1000.986450,1394.401733 1001.003906,1368.554688 
	C1001.020813,1368.002563 1001.070068,1367.805664 1001.470154,1367.875610 
	C1003.500671,1367.703613 1005.198792,1367.675781 1006.750549,1367.185059 
	C1017.250183,1363.864258 1024.991699,1356.661011 1030.904785,1347.920654 
	C1041.996826,1331.525146 1052.433716,1314.682373 1062.988403,1297.928223 
	C1102.025146,1235.963135 1140.966064,1173.937744 1180.018311,1111.982544 
	C1190.086304,1096.010010 1191.856567,1079.955200 1181.611450,1063.367188 
	C1168.405518,1041.985596 1155.225464,1020.587646 1142.120483,999.144165 
	C1118.859619,961.082581 1095.718506,922.947632 1072.419922,884.909119 
	C1057.816284,861.066040 1043.318359,837.148132 1028.157593,813.661133 
	C1022.002136,804.125122 1013.205322,797.230835 1001.048584,796.174194 
	C1001.024170,796.063904 1000.959229,795.847534 1000.959229,795.847534 
z"/>
<path fill="#FF9E00" opacity="1.000000" stroke="none" 
	d="
M1000.988403,1444.975830 
	C1190.416260,1444.994141 1379.847412,1444.988770 1569.278442,1445.056030 
	C1573.249512,1445.057373 1577.220215,1445.896484 1581.513550,1446.193848 
	C1586.870117,1449.842773 1592.263428,1453.257446 1596.849854,1457.536987 
	C1602.926636,1463.206665 1606.155273,1470.241211 1606.099243,1479.007324 
	C1605.864502,1515.833252 1606.097534,1552.661987 1605.927612,1589.488525 
	C1605.887939,1598.098755 1601.675659,1605.400024 1597.085327,1612.465210 
	C1592.347900,1619.756836 1585.938110,1625.382935 1578.615601,1629.594360 
	C1573.370850,1632.610840 1567.150513,1635.728882 1561.360229,1635.738403 
	C1374.891113,1636.047974 1188.421143,1635.983765 1001.480469,1635.448242 
	C1000.993408,1571.598022 1000.977295,1508.274902 1000.961182,1444.951904 
	C1000.961182,1444.951904 1000.991516,1444.960571 1000.988403,1444.975830 
z"/>
<path fill="#FFC91A" opacity="1.000000" stroke="none" 
	d="
M1000.496216,1444.969727 
	C1000.977295,1508.274902 1000.993408,1571.598022 1001.018188,1635.378662 
	C998.864502,1635.890869 996.702209,1635.993042 994.539917,1635.993042 
	C810.796814,1636.000366 627.053711,1636.007935 443.310608,1635.973999 
	C435.167511,1635.972534 428.247375,1632.484619 421.491028,1628.157959 
	C415.187164,1624.121094 409.557343,1619.567749 405.693298,1613.137695 
	C403.018890,1608.687378 399.973511,1604.257935 398.413483,1599.395752 
	C396.785126,1594.320557 396.128204,1588.741333 396.098877,1583.376831 
	C395.906891,1548.228394 395.943878,1513.078247 396.090454,1477.929443 
	C396.104462,1474.568970 396.810577,1470.957153 398.179993,1467.903442 
	C402.568848,1458.115967 409.632233,1450.800049 419.934479,1446.398438 
	C421.082764,1446.348267 422.047485,1446.862793 422.974304,1446.801758 
	C431.216797,1446.258789 439.452240,1445.082886 447.690308,1445.078125 
	C631.803894,1444.972046 815.917542,1444.991821 1000.496216,1444.969727 
z"/>
<path fill="#FF8A00" opacity="1.000000" stroke="none" 
	d="
M1513.028076,842.504883 
	C1509.416992,846.360535 1506.001709,850.127197 1502.065674,853.234131 
	C1471.244385,877.563599 1440.309448,901.749084 1409.440918,926.018982 
	C1399.675171,933.697083 1390.068970,941.579163 1380.250854,949.188599 
	C1377.391602,951.404480 1374.186768,953.289124 1370.905029,954.821655 
	C1363.645752,958.211914 1361.682495,958.323120 1356.654907,951.898804 
	C1349.324219,942.531311 1342.471069,932.690369 1336.372559,922.478943 
	C1323.437134,900.819946 1311.075439,878.817017 1298.563965,856.906433 
	C1286.955200,836.577209 1275.458740,816.184021 1263.910156,795.820435 
	C1261.125488,790.910217 1258.247192,786.050354 1255.589355,781.072510 
	C1254.759644,779.518616 1254.513062,777.653381 1254.008545,775.548035 
	C1259.991089,766.893494 1265.978882,758.631653 1271.934937,750.347168 
	C1281.092041,737.610474 1290.343018,724.939148 1299.342407,712.091797 
	C1310.413330,696.287231 1321.128540,680.232727 1332.257812,664.470093 
	C1341.265625,651.711975 1350.721558,639.271362 1359.864014,626.607056 
	C1369.927368,612.667114 1379.833374,598.613647 1389.863892,584.649963 
	C1393.132080,580.100464 1396.361816,575.493774 1399.998169,571.246155 
	C1403.932495,566.650452 1408.942993,563.960754 1415.292847,563.953796 
	C1424.151489,563.944092 1433.245117,562.860046 1440.364624,569.820312 
	C1443.106201,572.500610 1445.804321,575.395447 1447.799438,578.637329 
	C1453.870117,588.501587 1455.040039,600.010071 1457.871704,610.932556 
	C1460.557861,621.294617 1462.642090,631.811279 1465.093262,642.235901 
	C1467.321167,651.710815 1469.714233,661.146790 1471.985107,670.611816 
	C1475.343506,684.610535 1478.659058,698.619568 1481.990845,712.624634 
	C1485.661133,728.052917 1489.356445,743.475220 1492.989868,758.912109 
	C1496.364014,773.248047 1499.594849,787.618103 1503.033813,801.938354 
	C1505.348999,811.579041 1507.941406,821.152954 1510.359131,830.769409 
	C1511.304932,834.531738 1512.112305,838.328857 1513.028076,842.504883 
z"/>
<path fill="#FFAD00" opacity="1.000000" stroke="none" 
	d="
M747.599854,774.964722 
	C745.537781,780.516296 743.615356,786.156006 740.722961,791.244385 
	C718.774902,829.855774 696.795593,868.451477 674.476257,906.848694 
	C666.135437,921.197876 656.912048,935.036865 647.963013,949.026611 
	C646.642944,951.090271 644.782288,952.907715 642.869934,954.469543 
	C640.037354,956.782959 636.812988,958.059143 633.334045,955.642517 
	C623.398926,948.741394 613.219055,942.154968 603.635010,934.794312 
	C586.233093,921.429443 569.223938,907.554321 551.992859,893.965637 
	C531.498657,877.803589 510.939606,861.723755 490.433350,845.576965 
	C489.821350,845.095215 489.486450,844.261475 488.948181,843.245300 
	C491.568909,830.854004 494.194000,818.793152 496.976929,806.768799 
	C500.241821,792.661743 503.578278,778.570496 507.007324,764.502502 
	C509.726929,753.344910 512.798706,742.271484 515.418457,731.091431 
	C519.744019,712.631592 523.695251,694.083618 528.068237,675.635376 
	C530.791138,664.148193 534.147644,652.812439 536.955688,641.343994 
	C541.086975,624.471802 544.644897,607.452393 549.094055,590.667236 
	C552.188782,578.991516 558.550049,569.218140 570.315857,564.480957 
	C573.201843,563.318970 576.916382,564.411438 580.175964,563.947388 
	C594.056580,561.971313 602.494141,569.664368 609.590515,580.033630 
	C614.963013,587.883789 620.430786,595.669983 625.941650,603.423889 
	C637.557434,619.767334 649.271790,636.040771 660.864075,652.400818 
	C669.608215,664.741272 678.164856,677.214722 686.926880,689.542358 
	C690.781311,694.965393 695.080444,700.072876 698.922852,705.503906 
	C703.939514,712.594604 708.612427,719.927795 713.597412,727.041626 
	C720.968323,737.560303 728.505554,747.962158 735.928467,758.444641 
	C739.764160,763.861267 743.506042,769.344421 747.599854,774.964722 
z"/>
<path fill="#FF8D00" opacity="1.000000" stroke="none" 
	d="
M1612.451050,1305.839478 
	C1532.455811,1306.041016 1452.799805,1305.798462 1373.146118,1306.126221 
	C1346.953735,1306.234009 1329.347534,1277.248047 1340.076904,1253.849121 
	C1347.687500,1237.251953 1360.311768,1228.873657 1378.954590,1228.917114 
	C1461.942505,1229.110107 1544.931030,1229.004272 1628.377075,1229.012329 
	C1627.553955,1236.048096 1626.337280,1243.090454 1624.975830,1250.104614 
	C1623.366211,1258.397827 1621.744995,1266.692017 1619.921631,1274.940063 
	C1617.655518,1285.190308 1615.177734,1295.393799 1612.451050,1305.839478 
z"/>
<path fill="#FFB700" opacity="1.000000" stroke="none" 
	d="
M373.076477,1229.523682 
	C427.625153,1229.061157 482.118073,1229.024902 536.610962,1229.002075 
	C566.107605,1228.989746 595.604187,1228.993896 625.100830,1229.002319 
	C643.325500,1229.007446 659.016296,1241.204956 663.456482,1258.792603 
	C668.768921,1279.835083 657.778809,1299.313354 637.211304,1305.068359 
	C634.694702,1305.772583 631.963135,1305.961670 629.330994,1305.963135 
	C549.840088,1306.007080 470.349243,1305.997314 390.385864,1306.045166 
	C387.944061,1297.129028 385.971344,1288.164551 384.006287,1279.198486 
	C380.997833,1265.471191 378.004883,1251.740356 374.980316,1238.016724 
	C374.385315,1235.316895 373.676819,1232.642090 373.076477,1229.523682 
z"/>
<path fill="#FF5E26" opacity="1.000000" stroke="none" 
	d="
M1000.987549,1368.098511 
	C990.228882,1367.775757 982.198914,1361.681274 976.281494,1353.920410 
	C966.465149,1341.046021 957.778137,1327.288330 948.965759,1313.675781 
	C935.725281,1293.222778 922.703430,1272.626709 909.742493,1251.994629 
	C894.916260,1228.393799 880.313904,1204.652100 865.506592,1181.039185 
	C856.686157,1166.973633 847.510742,1153.129517 838.769775,1139.015503 
	C831.340210,1127.019043 824.010498,1114.941528 817.175964,1102.601074 
	C810.184937,1089.978027 812.090332,1077.307251 819.223450,1065.418335 
	C835.362183,1038.520142 851.757874,1011.775879 868.108398,985.005249 
	C875.387634,973.087097 882.860596,961.287292 890.158203,949.380188 
	C906.907654,922.050659 923.576782,894.671875 940.330322,867.344727 
	C950.983398,849.968445 961.587708,832.559143 972.500427,815.346313 
	C977.195801,807.940186 983.546692,801.980408 991.660583,798.322449 
	C994.308472,797.128723 997.326355,796.755554 1000.567139,795.927368 
	C1000.959229,795.847534 1001.024170,796.063904 1001.025391,796.618042 
	C1001.018799,986.717590 1001.010986,1176.263062 1001.005920,1365.808594 
	C1001.005920,1366.474243 1001.047729,1367.140015 1001.070068,1367.805664 
	C1001.070068,1367.805664 1001.020813,1368.002563 1000.987549,1368.098511 
z"/>
<path fill="#FF3C00" opacity="1.000000" stroke="none" 
	d="
M1001.470154,1367.875610 
	C1001.047729,1367.140015 1001.005920,1366.474243 1001.005920,1365.808594 
	C1001.010986,1176.263062 1001.018799,986.717590 1001.049805,796.728271 
	C1013.205322,797.230835 1022.002136,804.125122 1028.157593,813.661133 
	C1043.318359,837.148132 1057.816284,861.066040 1072.419922,884.909119 
	C1095.718506,922.947632 1118.859619,961.082581 1142.120483,999.144165 
	C1155.225464,1020.587646 1168.405518,1041.985596 1181.611450,1063.367188 
	C1191.856567,1079.955200 1190.086304,1096.010010 1180.018311,1111.982544 
	C1140.966064,1173.937744 1102.025146,1235.963135 1062.988403,1297.928223 
	C1052.433716,1314.682373 1041.996826,1331.525146 1030.904785,1347.920654 
	C1024.991699,1356.661011 1017.250183,1363.864258 1006.750549,1367.185059 
	C1005.198792,1367.675781 1003.500671,1367.703613 1001.470154,1367.875610 
z"/>
</svg>